<?xml version="1.0" encoding="UTF-8" standalone="no"?>
<svg xmlns:dc="http://purl.org/dc/elements/1.1/" xmlns:cc="http://creativecommons.org/ns#" xmlns:rdf="http://www.w3.org/1999/02/22-rdf-syntax-ns#" xmlns:svg="http://www.w3.org/2000/svg" xmlns="http://www.w3.org/2000/svg" xmlns:sodipodi="http://sodipodi.sourceforge.net/DTD/sodipodi-0.dtd" xmlns:inkscape="http://www.inkscape.org/namespaces/inkscape" viewBox="0 0 288 288" version="1.1" id="svg975" sodipodi:docname="logo-black.svg" inkscape:version="0.92.4 (5da689c313, 2019-01-14)">
  <metadata id="metadata981">
    <rdf:RDF>
      <cc:Work rdf:about="">
        <dc:format>image/svg+xml</dc:format>
        <dc:type rdf:resource="http://purl.org/dc/dcmitype/StillImage"></dc:type>
        <dc:title></dc:title>
      </cc:Work>
    </rdf:RDF>
  </metadata>
  <defs id="defs979"></defs>
  <sodipodi:namedview pagecolor="#ffffff" bordercolor="#666666" borderopacity="1" objecttolerance="10" gridtolerance="10" guidetolerance="10" inkscape:pageopacity="0" inkscape:pageshadow="2" inkscape:window-width="1920" inkscape:window-height="1001" id="namedview977" showgrid="false" inkscape:zoom="2.8055556" inkscape:cx="58.099011" inkscape:cy="144" inkscape:window-x="-9" inkscape:window-y="-9" inkscape:window-maximized="1" inkscape:current-layer="svg975"></sodipodi:namedview>
  <linearGradient id="a" gradientUnits="userSpaceOnUse" x1="76.81" x2="211.16" y1="211.17" y2="76.81">
    <stop offset=".21" stop-color="#24272a" id="stop962"></stop>
    <stop offset=".42" stop-color="#24272a" stop-opacity="0" id="stop964"></stop>
    <stop offset=".59" stop-color="#24272a" stop-opacity="0" id="stop966"></stop>
    <stop offset=".81" stop-color="#24272a" id="stop968"></stop>
  </linearGradient>
  <path sodipodi:nodetypes="cccccccccccczcczcccccccczccccccczccccccccczcccczc" inkscape:connector-curvature="0" id="path840" d="M 141.3312,4.520829 V 32.576 l -0.12086,0.120854 0.12086,0.120854 V 141.66356 l -35.78239,20.62992 0.0221,0.0221 h -0.38461 l 0.022,2.66597 0.39477,38.01069 2.69706,2.6399 2.63472,-2.69195 c 0,0 -2.4507,-22.05486 5.63408,-25.89444 8.08484,-3.83954 24.25392,12.31477 24.25392,12.31477 l 0.50975,0.39476 c 0,0 1.10837,43.65857 -4.33955,45.5169 -5.4481,1.86006 -54.828228,-45.17852 -54.828228,-45.17852 l -3.888372,-0.12085 0.213924,4.12457 c 11.970953,17.70116 68.726936,53.83308 60.042376,69.21009 -3.90835,0.75577 -58.37155,-53.89188 -58.37155,-53.89188 h -3.77488 l -0.0047,3.78026 70.28326,70.28336 c 0,0 -4.5502,-121.38077 1.96079,-125.5105 6.50971,-4.12977 29.02143,28.18229 29.02143,28.18229 l 3.75953,0.21966 0.21966,-3.75936 -34.1576,-38.32304 35.00119,-20.18215 -35.74056,-27.065671 -0.06,-0.05998 c 0,0 -1.87011,-51.504695 2.65975,-53.467162 4.53036,-1.962821 58.5011,56.372471 58.5011,56.372471 l 3.77492,0.02206 0.0132,-3.775149 C 200.72277,74.813134 142.44388,38.051044 148.34704,21.603553 c 4.02439,-2.715115 59.49121,56.971582 59.49121,56.971582 h 3.77505 l 0.005,-3.780086 z m 5.33177,99.171531 c 0,0 20.04122,11.71398 19.31094,20.39024 -0.72949,8.67635 -19.31094,14.51696 -19.31094,14.51696 z m -5.33177,44.14433 v 35.2096 c 0,0 -19.82025,-11.42587 -19.20218,-20.10937 0.61865,-8.68358 19.20218,-15.10023 19.20218,-15.10023 z" style="color: #000; font-variant: normal; font-variant-ligatures: normal; font-variant-position: normal; font-variant-numeric: normal; font-variant-alternates: normal; font-feature-settings: normal; text-indent: 0; text-align: start; letter-spacing: normal; word-spacing: normal; text-transform: none; writing-mode: lr-tb; direction: ltr; text-orientation: mixed; dominant-baseline: auto; baseline-shift: baseline; text-anchor: start; white-space: normal; shape-padding: 0; clip-rule: nonzero; visibility: visible; opacity: 1; isolation: auto; mix-blend-mode: normal; color-interpolation: srgb; color-interpolation-filters: linearrgb; solid-color: #000; solid-opacity: 1; vector-effect: none; fill: #000; fill-opacity: 1; fill-rule: nonzero; stroke: none; stroke-width: 5.34031px; stroke-linecap: square; stroke-linejoin: miter; stroke-miterlimit: 4; stroke-dasharray: none; stroke-dashoffset: 0; stroke-opacity: 1; color-rendering: auto; image-rendering: auto; shape-rendering: auto; text-rendering: auto; enable-background: accumulate; font: medium sans-serif; text-decoration: none; display: inline; overflow: visible"></path>
</svg>
